<svg width="24" height="27" viewBox="0 0 24 27" fill="none" xmlns="http://www.w3.org/2000/svg">
<path d="M18 24.6666H6C5.46957 24.6666 4.96086 24.4324 4.58579 24.0157C4.21071 23.5989 4 23.0337 4 22.4443V4.66656C4 4.07719 4.21071 3.51196 4.58579 3.09521C4.96086 2.67846 5.46957 2.44434 6 2.44434H13C13.009 2.44303 13.018 2.44303 13.027 2.44434H13.033C13.0424 2.44762 13.0522 2.44985 13.062 2.451C13.15 2.45767 13.237 2.47656 13.321 2.50767H13.363C13.3815 2.52202 13.3988 2.538 13.415 2.55545C13.5239 2.60927 13.6232 2.68456 13.708 2.77767L19.708 9.44434C19.7918 9.53854 19.8596 9.64884 19.908 9.76989C19.9167 9.79392 19.9244 9.81839 19.931 9.84323L19.941 9.87434C19.969 9.96656 19.985 10.0632 19.99 10.161C19.9909 10.1721 19.9932 10.1829 19.997 10.1932V10.1999C19.9986 10.2072 19.9996 10.2146 20 10.2221V22.4443C20 23.0337 19.7893 23.5989 19.4142 24.0157C19.0391 24.4324 18.5304 24.6666 18 24.6666ZM14.424 15.7777V21.3332H15.364V19.0666H16.824V18.1354H15.364V16.7121H17V15.7777H14.424ZM10.724 15.7777V21.3332H11.93C12.1798 21.3469 12.4292 21.2982 12.6597 21.1905C12.8902 21.0828 13.0961 20.9189 13.262 20.711C13.6069 20.222 13.7797 19.6102 13.748 18.9899V18.0899C13.7713 17.4761 13.5936 16.8738 13.248 16.3943C12.923 15.9832 12.448 15.7566 11.955 15.7777H10.724ZM7 15.7777V21.3332H7.94V19.3788H8.566C8.984 19.4043 9.392 19.2321 9.69 18.9054C9.97389 18.5524 10.1212 18.0894 10.1 17.6166C10.1186 17.1324 9.97135 16.6583 9.688 16.2899C9.54958 16.1193 9.37889 15.985 9.18818 15.8964C8.99747 15.8078 8.79148 15.7673 8.585 15.7777H7ZM13 4.66656V10.2221H18L13 4.66656ZM11.946 20.4021H11.664V16.7121H12.006C12.1255 16.7043 12.2449 16.7299 12.3532 16.7866C12.4615 16.8432 12.5553 16.9292 12.626 17.0366C12.773 17.3732 12.836 17.7477 12.808 18.121V19.0866C12.83 19.4421 12.761 19.7977 12.608 20.1099C12.5273 20.2146 12.4248 20.2959 12.3095 20.3468C12.1941 20.3977 12.0694 20.4167 11.946 20.4021ZM8.585 18.4443H7.939V16.7121H8.594C8.67444 16.7131 8.75334 16.7367 8.82331 16.7808C8.89327 16.825 8.952 16.8881 8.994 16.9643C9.102 17.1632 9.154 17.3921 9.144 17.6243C9.15654 17.8404 9.1049 18.0551 8.997 18.2354C8.94797 18.3038 8.8851 18.3584 8.81351 18.3947C8.74191 18.431 8.66362 18.448 8.585 18.4443Z" fill="#021B31"/>
</svg>
