<svg width="50" height="58" viewBox="0 0 50 58" fill="none" xmlns="http://www.w3.org/2000/svg">
<path d="M44.6429 3.57153H5.35714C2.39955 3.57153 0 5.97109 0 8.92868V48.2144C0 51.172 2.39955 53.5715 5.35714 53.5715H44.6429C47.6004 53.5715 50 51.172 50 48.2144V8.92868C50 5.97109 47.6004 3.57153 44.6429 3.57153ZM30.9487 46.3952C30.0112 46.5626 29.6652 45.9823 29.6652 45.5023C29.6652 44.8997 29.6875 41.8193 29.6875 39.3305C29.6875 37.5894 29.1071 36.4845 28.4263 35.9041C32.5558 35.4465 36.9085 34.8773 36.9085 27.7456C36.9085 25.7144 36.183 24.6988 35 23.393C35.1897 22.9131 35.8259 20.9376 34.8103 18.3706C33.2589 17.8907 29.7098 20.3684 29.7098 20.3684C28.2366 19.9555 26.6406 19.7434 25.067 19.7434C23.4933 19.7434 21.8973 19.9555 20.4241 20.3684C20.4241 20.3684 16.875 17.8907 15.3237 18.3706C14.308 20.9264 14.933 22.9019 15.1339 23.393C13.9509 24.6988 13.3929 25.7144 13.3929 27.7456C13.3929 34.8439 17.5558 35.4465 21.6853 35.9041C21.1496 36.384 20.6696 37.2099 20.5022 38.393C19.442 38.8729 16.7299 39.6988 15.1116 36.8416C14.096 35.0782 12.2656 34.9331 12.2656 34.9331C10.4576 34.9108 12.1429 36.0715 12.1429 36.0715C13.3482 36.6296 14.1964 38.7724 14.1964 38.7724C15.279 42.0872 20.4576 40.9711 20.4576 40.9711C20.4576 42.5224 20.4799 45.0448 20.4799 45.5023C20.4799 45.9823 20.1451 46.5626 19.1964 46.3952C11.8304 43.9287 6.67411 36.9197 6.67411 28.7278C6.67411 18.4822 14.5089 10.7032 24.7545 10.7032C35 10.7032 43.3036 18.4822 43.3036 28.7278C43.3147 36.9197 38.3147 43.9398 30.9487 46.3952ZM20 39.576C19.7879 39.6206 19.5871 39.5314 19.5647 39.3863C19.5424 39.2189 19.6875 39.0738 19.8996 39.0291C20.1116 39.0068 20.3125 39.0961 20.3348 39.2412C20.3683 39.3863 20.2232 39.5314 20 39.576ZM18.9397 39.4756C18.9397 39.6206 18.7723 39.7434 18.5491 39.7434C18.3036 39.7657 18.1362 39.643 18.1362 39.4756C18.1362 39.3305 18.3036 39.2077 18.5268 39.2077C18.7388 39.1854 18.9397 39.3081 18.9397 39.4756ZM17.4107 39.3528C17.3661 39.4979 17.1429 39.5648 16.9531 39.4979C16.7411 39.4532 16.596 39.2858 16.6406 39.1407C16.6853 38.9956 16.9085 38.9287 17.0982 38.9733C17.3214 39.0403 17.4665 39.2077 17.4107 39.3528ZM16.0379 38.7501C15.9375 38.8729 15.7254 38.8506 15.558 38.6831C15.3906 38.5381 15.346 38.326 15.4576 38.2256C15.558 38.1028 15.7701 38.1251 15.9375 38.2925C16.0826 38.4376 16.1384 38.6608 16.0379 38.7501ZM15.0223 37.7345C14.9219 37.8014 14.7321 37.7345 14.6094 37.5671C14.4866 37.3997 14.4866 37.2099 14.6094 37.1318C14.7321 37.0314 14.9219 37.1095 15.0223 37.2769C15.1451 37.4443 15.1451 37.6452 15.0223 37.7345ZM14.2969 36.6519C14.1964 36.7523 14.029 36.6965 13.9062 36.5849C13.7835 36.4398 13.7612 36.2724 13.8616 36.1943C13.9621 36.0939 14.1295 36.1497 14.2522 36.2613C14.375 36.4064 14.3973 36.5738 14.2969 36.6519ZM13.5491 35.826C13.5045 35.9264 13.3594 35.9488 13.2366 35.8706C13.0915 35.8037 13.0246 35.6809 13.0692 35.5805C13.1138 35.5135 13.2366 35.48 13.3817 35.5358C13.5268 35.6139 13.5938 35.7367 13.5491 35.826Z" fill="#0088FF"/>
</svg>
