<svg width="25" height="26" viewBox="0 0 25 26" fill="none" xmlns="http://www.w3.org/2000/svg">
<path d="M12.5 0.52002C5.8725 0.52002 0.5 6.10742 0.5 13C0.5 19.8926 5.8725 25.48 12.5 25.48C19.1275 25.48 24.5 19.8926 24.5 13C24.5 6.10742 19.1275 0.52002 12.5 0.52002ZM9.5625 18.1727H7.1325V10.0399H9.5625V18.1727ZM8.3325 9.04152C7.565 9.04152 7.06875 8.47602 7.06875 7.77662C7.06875 7.06292 7.58 6.51432 8.36375 6.51432C9.1475 6.51432 9.6275 7.06292 9.6425 7.77662C9.6425 8.47602 9.1475 9.04152 8.3325 9.04152ZM18.4375 18.1727H16.0075V13.6656C16.0075 12.6165 15.655 11.9041 14.7763 11.9041C14.105 11.9041 13.7063 12.3864 13.53 12.8505C13.465 13.0156 13.4488 13.2496 13.4488 13.4823V18.1714H11.0175V12.6334C11.0175 11.6181 10.9862 10.7692 10.9537 10.0386H13.065L13.1763 11.1683H13.225C13.545 10.6379 14.3288 9.85532 15.64 9.85532C17.2388 9.85532 18.4375 10.9694 18.4375 13.364V18.1727Z" fill="#B4E0FF"/>
</svg>
