<svg width="50" height="50" viewBox="0 0 50 50" fill="none" xmlns="http://www.w3.org/2000/svg">
<path d="M9.80319 0.0124512C4.41734 0.0124512 0.00933838 4.42035 0.00933838 9.8063V40.1984C0.00933838 45.5842 4.41724 49.9906 9.80319 49.9906H40.1952C45.5811 49.9906 49.9875 45.5843 49.9875 40.1984V9.8063C49.9875 4.42045 45.5811 0.0124512 40.1952 0.0124512H9.80319ZM12.2665 8.25985C14.8489 8.25985 16.4395 9.95515 16.4886 12.1836C16.4886 14.3629 14.8488 16.1058 12.2165 16.1058H12.1681C9.63484 16.1058 7.99749 14.363 7.99749 12.1836C7.99749 9.9552 9.68439 8.25985 12.2664 8.25985H12.2665ZM34.5205 18.6754C39.4869 18.6754 43.21 21.9214 43.21 28.8972V41.9196H35.6623V29.7703C35.6623 26.7173 34.57 24.6344 31.8385 24.6344C29.7533 24.6344 28.5104 26.0383 27.9647 27.3945C27.7654 27.8797 27.7164 28.5573 27.7164 29.2361V41.9196H20.1687C20.1687 41.9196 20.2678 21.339 20.1687 19.208H27.7179V22.4242C28.7209 20.8767 30.515 18.6753 34.5205 18.6753V18.6754ZM8.44269 19.2096H15.9903V41.9197H8.44269V19.2096Z" fill="#0088FF"/>
</svg>
