<svg width="52" height="52" viewBox="0 0 52 52" fill="none" xmlns="http://www.w3.org/2000/svg">
<path d="M50.935 12.3899C50.9143 11.319 50.8284 10.2504 50.678 9.18989C50.4986 8.2466 50.1939 7.33156 49.7719 6.46911C48.848 4.6452 47.367 3.16318 45.5437 2.23818C44.6868 1.81811 43.7777 1.51423 42.8405 1.33458C41.772 1.18103 40.695 1.0935 39.6157 1.07249C39.1589 1.05502 38.5674 1.04753 38.2928 1.04753L13.7122 1.04004C13.4376 1.04004 12.8461 1.04753 12.3893 1.065C11.3185 1.08563 10.2499 1.17149 9.18945 1.3221C8.24621 1.50142 7.33122 1.80616 6.46881 2.22819C4.64509 3.15226 3.16319 4.63336 2.23809 6.45663C1.81815 7.31359 1.51429 8.22269 1.33454 9.15993C1.18029 10.2285 1.09193 11.3055 1.06996 12.3849C1.05498 12.8417 1.045 13.4333 1.045 13.7079L1.04001 38.2897C1.04001 38.5643 1.0475 39.1559 1.06497 39.6127C1.0856 40.6836 1.17146 41.7522 1.32206 42.8127C1.5014 43.756 1.80612 44.671 2.2281 45.5335C3.15213 47.3573 4.63315 48.8393 6.45633 49.7644C7.31327 50.1843 8.22232 50.4882 9.1595 50.668C10.228 50.8216 11.305 50.9091 12.3843 50.9301C12.8411 50.9476 13.4326 50.955 13.7072 50.955L38.2878 50.96C38.5624 50.96 39.1539 50.9525 39.6107 50.9351C40.6815 50.9144 41.7501 50.8285 42.8106 50.678C43.7538 50.4985 44.6688 50.1938 45.5312 49.7719C47.3559 48.8482 48.8387 47.3671 49.7644 45.5434C50.1844 44.6865 50.4883 43.7774 50.668 42.8401C50.8223 41.7716 50.9107 40.6946 50.9325 39.6152C50.9475 39.1584 50.9575 38.5668 50.9575 38.2922L50.96 13.7129C50.96 13.4383 50.9525 12.8467 50.935 12.3899ZM26.5416 43.3668H26.5341C23.5631 43.3662 20.6395 42.6214 18.0303 41.2002L8.5954 43.6739L11.1214 34.4557C9.16562 31.0617 8.38417 27.1173 8.89816 23.234C9.41215 19.3508 11.1929 15.7455 13.9642 12.9773C16.7356 10.2091 20.3427 8.43262 24.2264 7.92322C28.1101 7.41382 32.0534 8.2 35.4448 10.1599C38.8363 12.1197 41.4864 15.1438 42.9844 18.7632C44.4824 22.3826 44.7445 26.3951 43.7301 30.1786C42.7157 33.9621 40.4814 37.3053 37.3737 39.6897C34.2661 42.0741 30.4586 43.3666 26.5416 43.3668Z" fill="#0088FF"/>
<path d="M26.0854 11.0025C23.391 11.0018 20.7457 11.7228 18.4244 13.0908C16.1031 14.4587 14.1907 16.4236 12.886 18.7811C11.5813 21.1385 10.932 23.8025 11.0056 26.4959C11.0792 29.1893 11.8731 31.8138 13.3046 34.0965L13.6634 34.6664L12.1392 40.2287L17.8464 38.7325L18.396 39.0582C20.7194 40.4342 23.3699 41.1602 26.0701 41.16H26.0778C30.0771 41.1607 33.913 39.5725 36.7415 36.745C39.5699 33.9174 41.1593 30.082 41.16 26.0825C41.1607 22.0831 39.5726 18.2472 36.7451 15.4186C33.9175 12.5901 30.0822 11.0007 26.0828 11L26.0854 11.0025ZM34.9503 32.5545C34.6167 33.1053 34.1728 33.5811 33.6465 33.952C33.1201 34.3229 32.5227 34.5809 31.8918 34.7097C30.9393 34.8731 29.9618 34.8121 29.037 34.5316C28.1599 34.2582 27.2978 33.9389 26.4543 33.5748C23.324 32.0038 20.6558 29.646 18.7116 26.7327C17.651 25.384 17.0072 23.755 16.8592 22.0457C16.847 21.3401 16.9818 20.6398 17.2552 19.9892C17.5286 19.3387 17.9344 18.7522 18.4469 18.2671C18.5984 18.0943 18.7839 17.9547 18.9919 17.8571C19.1999 17.7594 19.4259 17.7058 19.6556 17.6997C19.9558 17.6997 20.2586 17.6997 20.5232 17.7149C20.8031 17.7277 21.1746 17.6081 21.541 18.4936C21.9227 19.3994 22.8285 21.6309 22.9404 21.8574C23.0123 21.9761 23.0534 22.1109 23.0601 22.2495C23.0668 22.3881 23.0387 22.5262 22.9786 22.6513C22.8645 22.9235 22.7119 23.178 22.5257 23.407C22.2967 23.6716 22.0499 23.9973 21.8463 24.2009C21.6173 24.4273 21.3832 24.6716 21.6453 25.1245C22.326 26.2901 23.1758 27.3482 24.1669 28.2645C25.2422 29.2205 26.4761 29.9817 27.8131 30.5138C28.266 30.7428 28.5306 30.7021 28.7952 30.3993C29.0599 30.0965 29.9275 29.0762 30.2303 28.6232C30.5331 28.1703 30.8333 28.2466 31.2481 28.3968C31.6628 28.5469 33.8943 29.6436 34.3472 29.8726C34.8001 30.1016 35.1029 30.211 35.2149 30.3993C35.339 31.1281 35.247 31.8773 34.9503 32.5545Z" fill="#0088FF"/>
</svg>
